name rise45.9887peak57.8056fall74.9286.mot
datacolumns 19
datarows 15
range 5.73498300000000 5.75831100000000
endheader
time	ground_force1_vx	ground_force1_vy	ground_force1_vz	ground_force1_px	ground_force1_py	ground_force1_pz	ground_force2_vx	ground_force2_vy	ground_force2_vz	ground_force2_px	ground_force2_py	ground_force2_pz	ground_torque1_x	ground_torque1_y	ground_torque1_z	ground_torque2_x	ground_torque2_y	ground_torque2_z	
5.73498300000000	66.84729700000000	780.81334700000002	53.54503400000000	0.34590200000000	0.00000000000000	0.10578500000000	0.00000000000000	0.00000000000000	0.00000000000000	0.00000000000000	0.00000000000000	0.00000000000000	0.00000000000000	22.72246700000000	0.00000000000000	0.00000000000000	0.00000000000000	0.00000000000000	
5.73665200000000	66.26459300000000	783.24736399999995	53.60576100000000	0.34532500000000	0.00000000000000	0.10576400000000	0.00000000000000	0.00000000000000	0.00000000000000	0.00000000000000	0.00000000000000	0.00000000000000	0.00000000000000	22.77799000000000	0.00000000000000	0.00000000000000	0.00000000000000	0.00000000000000	
5.73831100000000	65.67776800000000	785.52080899999999	53.66496700000000	0.34477600000000	0.00000000000000	0.10574300000000	0.00000000000000	0.00000000000000	0.00000000000000	0.00000000000000	0.00000000000000	0.00000000000000	0.00000000000000	22.83566000000000	0.00000000000000	0.00000000000000	0.00000000000000	0.00000000000000	
5.73997700000000	65.08712500000000	787.63258499999995	53.72266000000000	0.34425400000000	0.00000000000000	0.10572300000000	0.00000000000000	0.00000000000000	0.00000000000000	0.00000000000000	0.00000000000000	0.00000000000000	0.00000000000000	22.89538400000000	0.00000000000000	0.00000000000000	0.00000000000000	0.00000000000000	
5.74165000000000	64.49292100000000	789.58185800000001	53.77879200000000	0.34375800000000	0.00000000000000	0.10570400000000	0.00000000000000	0.00000000000000	0.00000000000000	0.00000000000000	0.00000000000000	0.00000000000000	0.00000000000000	22.95702700000000	0.00000000000000	0.00000000000000	0.00000000000000	0.00000000000000	
5.74331600000000	63.89537400000000	791.36806700000000	53.83326600000000	0.34328400000000	0.00000000000000	0.10568600000000	0.00000000000000	0.00000000000000	0.00000000000000	0.00000000000000	0.00000000000000	0.00000000000000	0.00000000000000	23.02042000000000	0.00000000000000	0.00000000000000	0.00000000000000	0.00000000000000	
5.74498100000000	63.29466600000000	792.99093200000004	53.88593400000000	0.34283200000000	0.00000000000000	0.10566900000000	0.00000000000000	0.00000000000000	0.00000000000000	0.00000000000000	0.00000000000000	0.00000000000000	0.00000000000000	23.08535400000000	0.00000000000000	0.00000000000000	0.00000000000000	0.00000000000000	
5.74664300000000	62.69094800000000	794.45046300000001	53.93660800000000	0.34239700000000	0.00000000000000	0.10565300000000	0.00000000000000	0.00000000000000	0.00000000000000	0.00000000000000	0.00000000000000	0.00000000000000	0.00000000000000	23.15158900000000	0.00000000000000	0.00000000000000	0.00000000000000	0.00000000000000	
5.74830900000000	62.08433800000000	795.74695899999995	53.98505800000000	0.34197900000000	0.00000000000000	0.10563800000000	0.00000000000000	0.00000000000000	0.00000000000000	0.00000000000000	0.00000000000000	0.00000000000000	0.00000000000000	23.21885200000000	0.00000000000000	0.00000000000000	0.00000000000000	0.00000000000000	
5.74998500000000	61.47493200000000	796.88101800000004	54.03101900000000	0.34157400000000	0.00000000000000	0.10562400000000	0.00000000000000	0.00000000000000	0.00000000000000	0.00000000000000	0.00000000000000	0.00000000000000	0.00000000000000	23.28684400000000	0.00000000000000	0.00000000000000	0.00000000000000	0.00000000000000	
5.75165100000000	60.86280300000000	797.85353899999996	54.07419400000000	0.34118000000000	0.00000000000000	0.10561200000000	0.00000000000000	0.00000000000000	0.00000000000000	0.00000000000000	0.00000000000000	0.00000000000000	0.00000000000000	23.35524000000000	0.00000000000000	0.00000000000000	0.00000000000000	0.00000000000000	
5.75331700000000	60.24800300000000	798.66571799999997	54.11425900000000	0.34079500000000	0.00000000000000	0.10560100000000	0.00000000000000	0.00000000000000	0.00000000000000	0.00000000000000	0.00000000000000	0.00000000000000	0.00000000000000	23.42369400000000	0.00000000000000	0.00000000000000	0.00000000000000	0.00000000000000	
5.75498200000000	59.63057300000000	799.31905600000005	54.15087000000000	0.34041500000000	0.00000000000000	0.10559100000000	0.00000000000000	0.00000000000000	0.00000000000000	0.00000000000000	0.00000000000000	0.00000000000000	0.00000000000000	23.49183900000000	0.00000000000000	0.00000000000000	0.00000000000000	0.00000000000000	
5.75664800000000	59.01054100000000	799.81534999999997	54.18366000000000	0.34003800000000	0.00000000000000	0.10558300000000	0.00000000000000	0.00000000000000	0.00000000000000	0.00000000000000	0.00000000000000	0.00000000000000	0.00000000000000	23.55929400000000	0.00000000000000	0.00000000000000	0.00000000000000	0.00000000000000	
5.75831100000000	58.38792700000000	800.15669600000001	54.21225500000000	0.33966200000000	0.00000000000000	0.10557700000000	0.00000000000000	0.00000000000000	0.00000000000000	0.00000000000000	0.00000000000000	0.00000000000000	0.00000000000000	23.62566500000000	0.00000000000000	0.00000000000000	0.00000000000000	0.00000000000000	
